<?xml version="1.0" encoding="UTF-8" standalone="no"?>
<!-- Generator: Adobe Illustrator 16.0.0, SVG Export Plug-In . SVG Version: 6.00 Build 0)  -->

<svg
   xmlns:dc="http://purl.org/dc/elements/1.1/"
   xmlns:cc="http://creativecommons.org/ns#"
   xmlns:rdf="http://www.w3.org/1999/02/22-rdf-syntax-ns#"
   xmlns:svg="http://www.w3.org/2000/svg"
   xmlns="http://www.w3.org/2000/svg"
   xmlns:xlink="http://www.w3.org/1999/xlink"
   xmlns:sodipodi="http://sodipodi.sourceforge.net/DTD/sodipodi-0.dtd"
   xmlns:inkscape="http://www.inkscape.org/namespaces/inkscape"
   version="1.1"
   id="Layer_1"
   x="0px"
   y="0px"
   width="2299.533px"
   height="2801.833px"
   viewBox="0 0 2299.533 2801.833"
   enable-background="new 0 0 2299.533 2801.833"
   xml:space="preserve"
   inkscape:version="0.48.4 r9939"
   sodipodi:docname="logo.xcf"><metadata
     id="metadata75"><rdf:RDF><cc:Work
         rdf:about=""><dc:format>image/svg+xml</dc:format><dc:type
           rdf:resource="http://purl.org/dc/dcmitype/StillImage" /><dc:title></dc:title></cc:Work></rdf:RDF></metadata><defs
     id="defs73" /><sodipodi:namedview
     pagecolor="#ffffff"
     bordercolor="#666666"
     borderopacity="1"
     objecttolerance="10"
     gridtolerance="10"
     guidetolerance="10"
     inkscape:pageopacity="0"
     inkscape:pageshadow="2"
     inkscape:window-width="640"
     inkscape:window-height="480"
     id="namedview71"
     showgrid="false"
     inkscape:zoom="0.084230573"
     inkscape:cx="1149.7665"
     inkscape:cy="1400.9165"
     inkscape:window-x="0"
     inkscape:window-y="27"
     inkscape:window-maximized="0"
     inkscape:current-layer="Layer_1" /><g
     id="g3"><g
       id="g5"><polyline
         opacity="0.3"
         fill="#E54D36"
         points="1152.822,2344.665 1152.822,2479.995 1888.795,1989.334 2205.828,834.417     1152.822,502.292 1152.822,637.643 2061.205,924.295 2061.205,924.295 1788.365,1927.17   "
         id="polyline7" /><g
         id="g9"><g
           id="g11"><path
             fill="#E54D36"
             d="M1152.822,502.292l1053.006,332.125l-317.033,1154.918l-735.973,490.66L416.84,2004.438L92.252,834.417      L1152.822,502.292 M1152.839,486.569l-4.499,1.408L87.77,820.102l-13.852,4.338l3.88,13.986l324.587,1170.021l1.524,5.494      l4.789,3.095l735.982,475.557l8.27,5.343l8.191-5.461l735.973-490.66l4.662-3.107l1.482-5.402l317.033-1154.918l3.824-13.931      l-13.777-4.346L1157.334,487.987L1152.839,486.569L1152.839,486.569z"
             id="path13" /></g></g><g
         id="g15"><g
           id="g17"><path
             fill="#FFFFFF"
             d="M1152.303,640.954l908.902,286.674l-273.65,996.863L1152.303,2348l-635.264-410.477L236.876,927.627      L1152.303,640.954 M1152.304,639.906l-0.3,0.095L236.577,926.673l-0.924,0.289l0.259,0.933l280.163,1009.896l0.102,0.366      l0.319,0.206l635.264,410.477l0.552,0.356l0.546-0.364l635.252-423.51l0.311-0.207l0.1-0.36l273.65-996.863l0.254-0.929      l-0.918-0.289L1152.604,640L1152.304,639.906L1152.304,639.906z"
             id="path19" /></g></g><polyline
         opacity="0.3"
         fill="#E54D36"
         points="1149.039,2344.657 509.791,1933.483 233.615,924.292 1149.039,637.618   "
         id="polyline21" /><g
         id="g23"><polygon
           fill="none"
           points="236.876,924.292 1152.303,637.618 2061.205,924.292 1787.555,1921.157 1152.303,2344.668      517.039,1934.19    "
           id="polygon25" /></g><path
         fill="none"
         stroke="#C3E6E3"
         stroke-miterlimit="10"
         d="M2207.281,382.979"
         id="path27" /><g
         id="g29"><g
           id="g31"><path
             fill="#E54D36"
             d="M1756.273,1309.391c0,0-20.963,120.195-15.029,126.561c5.926,6.365,1.492,6.451-1.764,14.711      c-3.242,8.25-9.871,6.508,11.109,60.348c0,0,18.496,26.586,18.218,41.266c0,0-23.833,19.586-54.874,20.203      c-31.035,0.617-69.935,0.711-94.752-28.48c0,0-7.724-11.109,6.938-28.805c0,0,24.594,1.729,18.135-65.711      c0,0-14.184-9.609,0.27-21.156c0,0,8.656-120.635,23.808-131.174"
             id="path33" /></g><path
           fill="#232323"
           d="M1762.535,1286.969c0,0-63.15-28.012-93.75-21.656l-5.314,43.572l90.655,19.012L1762.535,1286.969z"
           id="path35" /></g><g
         id="g37"><defs
           id="defs39"><polygon
             id="SVGID_1_"
             points="236.876,924.295 1152.303,637.622 2061.205,924.295 1787.555,1921.157 1152.303,2344.668       517.039,1934.19     " /></defs><clipPath
           id="SVGID_2_"><use
             xlink:href="#SVGID_1_"
             overflow="visible"
             id="use43" /></clipPath><g
           clip-path="url(#SVGID_2_)"
           id="g45"><path
             fill="#E54D36"
             d="M650.883,1610.407c-204.09-165.219-184.654-476.205-223.518-398.445      c-38.867,77.744-136.068,29.15-194.377,9.711c-58.316-19.439-58.316,194.373-106.909,233.244      c-48.581,38.873-262.393-106.904-184.647-48.596l611.736,713.045c-13.129-124.682-18.908-265.988-18.908-265.988      L650.883,1610.407z"
             id="path47" /><path
             fill="#FFFFFF"
             d="M602.299,2304.965c14.775-7.293,34.949-32.158,55.869-63.213l-105-122.387      C564.125,2223.409,580.195,2315.872,602.299,2304.965z"
             id="path49" /><path
             fill="#E54D36"
             d="M1684.84,1582.665l84.188-90.68l-22.208-145.938l-113.811,24.23l-48.285,160.117l-164.098,190.674      l-176.908,161.463l-19.451-58.312l68.039-77.75l-97.195-106.904l19.449-320.711l77.746-155.49h-116.625l-97.195-194.379      l-92.314,194.379H874.404l-97.176-194.379l-77.758,194.379H573.139l213.797,476.201      c-19.443,58.309-145.773-29.379-145.773,184.654c0,252.68,116.623,242.963,116.623,242.963s-51.764,103.516-99.617,174.57      l809.072,943.059c-19.433-38.889,9.729-515.082,9.729-515.082c-38.881-77.736-126.348-87.463-136.074-136.053      c-9.725-48.598-9.717-116.621-9.717-116.621s-97.186,68.023-162.958,0c-49.325-51.029,233.44-78.84,278.282-112.09      c14.951-11.092-46.673-174.787-46.673-174.787s-117.323-28.033-84.198-94.115c11.32-22.584,51.086-67.127,96.1-113.74      c51.854-16.496,172.758-50.658,191.456-17.211l-32.294-138.789c1.599-1.5,2.458-2.303,2.458-2.303L1684.84,1582.665z       M842.141,1296.649c0,0,108.004,22.771,112.295,34.609c10.419,28.752-13.082,85.795-24.83,101.455      C875.619,1504.713,795.23,1304.522,842.141,1296.649z M1009.312,1610.305c-18.316-2.912-57.535-107.977-57.535-107.977h115.068      C1066.846,1502.329,1027.629,1613.221,1009.312,1610.305z M1049.663,1416.045c-11.738-15.66-51.699-68.756-37.238-90.963      c24.737-37.992,124.705-45.098,124.705-45.098C1159.801,1288.967,1103.664,1488.049,1049.663,1416.045z"
             id="path51" /></g><use
           xlink:href="#SVGID_1_"
           overflow="visible"
           fill="none"
           stroke="#E54D36"
           stroke-width="2"
           stroke-miterlimit="10"
           id="use53" /></g><path
         fill="#020202"
         stroke="#000000"
         stroke-miterlimit="10"
         d="M1152.303,2348.307"
         id="path55" /></g><g
       id="g57"><g
         id="g59"><path
           fill="#FFFFFF"
           stroke="#E54D36"
           stroke-miterlimit="10"
           d="M1993.527,599.659     C1857.97,712.825,1736.378,946.84,1736.378,946.84l-60.78,309.678l-0.197,5.064c28.236-1.643,71.557,14.17,90.752,21.867     l1.627-13.527c0,0,11.203-35.559,7.869-42.342c-3.342-6.779-13.049-18.17-13.049-18.17s18.924-1.336,21.71-3.85     c2.796-2.512-16.821-4.252-14.653-11.914c2.147-7.656,29.301-10.318,29.301-10.318c-2.854-53.002,21.436-119.355,21.436-119.355     c17.059-65.76,113.808-196.324,113.808-196.324C2038.594,739.25,1993.527,599.659,1993.527,599.659z"
           id="path61" /><path
           fill="#CE4131"
           d="M1761.364,1279.811c-16.642-6.674-61.479-20.383-85.964-18.961c-2.328,0.135-4.551,0.395-6.615,0.824     l-5.314,47.211l4.977,1.045l80.24,16.826l5.438,1.141l15.687-40.928C1769.812,1286.969,1766.627,1281.92,1761.364,1279.811z"
           id="path63" /></g><g
         id="g65"><line
           fill="none"
           stroke="#E54D36"
           stroke-miterlimit="10"
           x1="1760.655"
           y1="956.815"
           x2="1698.686"
           y2="1255.213"
           id="line67" /><path
           fill="none"
           stroke="#E54D36"
           stroke-miterlimit="10"
           d="M1977.015,627.893c0,0,22.138,113.506-55.804,213.764     c-77.954,100.266-132.202,207.982-145.015,307.4"
           id="path69" /></g></g></g></svg>