<?xml version="1.0" encoding="UTF-8" standalone="no"?>
<!-- Generator: Adobe Illustrator 16.0.0, SVG Export Plug-In . SVG Version: 6.00 Build 0)  -->

<svg
   xmlns:dc="http://purl.org/dc/elements/1.1/"
   xmlns:cc="http://creativecommons.org/ns#"
   xmlns:rdf="http://www.w3.org/1999/02/22-rdf-syntax-ns#"
   xmlns:svg="http://www.w3.org/2000/svg"
   xmlns="http://www.w3.org/2000/svg"
   xmlns:xlink="http://www.w3.org/1999/xlink"
   xmlns:sodipodi="http://sodipodi.sourceforge.net/DTD/sodipodi-0.dtd"
   xmlns:inkscape="http://www.inkscape.org/namespaces/inkscape"
   version="1.1"
   id="Layer_1"
   x="0px"
   y="0px"
   width="2299.533px"
   height="2801.833px"
   viewBox="0 0 2299.533 2801.833"
   enable-background="new 0 0 2299.533 2801.833"
   xml:space="preserve"
   inkscape:version="0.91 r13725"
   sodipodi:docname="logo.svg"><metadata
     id="metadata75"><rdf:RDF><cc:Work
         rdf:about=""><dc:format>image/svg+xml</dc:format><dc:type
           rdf:resource="http://purl.org/dc/dcmitype/StillImage" /><dc:title /></cc:Work></rdf:RDF></metadata><defs
     id="defs73"><defs
       id="defs39"><polygon
         points="1152.303,2344.668 517.039,1934.19 236.876,924.295 1152.303,637.622 2061.205,924.295 1787.555,1921.157 "
         id="SVGID_1_" /></defs><clipPath
       id="SVGID_2_"><use
         height="100%"
         width="100%"
         y="0"
         x="0"
         style="overflow:visible"
         id="use43"
         overflow="visible"
         xlink:href="#SVGID_1_" /></clipPath></defs><sodipodi:namedview
     pagecolor="#ffffff"
     bordercolor="#666666"
     borderopacity="1"
     objecttolerance="10"
     gridtolerance="10"
     guidetolerance="10"
     inkscape:pageopacity="0"
     inkscape:pageshadow="2"
     inkscape:window-width="1920"
     inkscape:window-height="1039"
     id="namedview71"
     showgrid="false"
     inkscape:zoom="0.23824004"
     inkscape:cx="2636.8253"
     inkscape:cy="1580.2099"
     inkscape:window-x="0"
     inkscape:window-y="26"
     inkscape:window-maximized="1"
     inkscape:current-layer="Layer_1" /><polyline
     points="1152.822,2344.665 1152.822,2479.995 1888.795,1989.334 2205.828,834.417     1152.822,502.292 1152.822,637.643 2061.205,924.295 2061.205,924.295 1788.365,1927.17   "
     id="polyline7"
     style="opacity:0.3;fill:#e54d36" /><g
     id="g9"><g
       id="g11"><path
         d="M 1152.822,502.292 2205.828,834.417 1888.795,1989.335 1152.822,2479.995 416.84,2004.438 92.252,834.417 1152.822,502.292 m 0.017,-15.723 -4.499,1.408 -1060.57,332.125 -13.852,4.338 3.88,13.986 324.587,1170.021 1.524,5.494 4.789,3.095 735.982,475.557 8.27,5.343 8.191,-5.461 735.973,-490.66 4.662,-3.107 1.482,-5.402 317.033,-1154.918 3.824,-13.931 -13.777,-4.346 -1053.004,-332.124 -4.495,-1.418 0,0 z"
         id="path13"
         inkscape:connector-curvature="0"
         style="fill:#e54d36" /></g></g><g
     id="g15"><g
       id="g17"><path
         d="m 1152.303,640.954 908.902,286.674 -273.65,996.863 L 1152.303,2348 517.039,1937.523 236.876,927.627 1152.303,640.954 m 10e-4,-1.048 -0.3,0.095 -915.427,286.672 -0.924,0.289 0.259,0.933 280.163,1009.896 0.102,0.366 0.319,0.206 635.264,410.477 0.552,0.356 0.546,-0.364 635.252,-423.51 0.311,-0.207 0.1,-0.36 273.65,-996.863 0.254,-0.929 -0.918,-0.289 L 1152.604,640 l -0.3,-0.094 0,0 z"
         id="path19"
         inkscape:connector-curvature="0"
         style="fill:#ffffff" /></g></g><polyline
     points="1149.039,2344.657 509.791,1933.483 233.615,924.292 1149.039,637.618   "
     id="polyline21"
     style="opacity:0.3;fill:#ff0000;fill-opacity:0" /><g
     id="g23"><polygon
       points="1152.303,2344.668 517.039,1934.19 236.876,924.292 1152.303,637.618 2061.205,924.292 1787.555,1921.157 "
       id="polygon25"
       style="fill:none" /></g><path
     stroke-miterlimit="10"
     d="M 2207.281,382.979"
     id="path27"
     inkscape:connector-curvature="0"
     style="fill:none;stroke:#c3e6e3;stroke-miterlimit:10" /><g
     id="g29"><g
       id="g31"><path
         d="m 1756.273,1309.391 c 0,0 -20.963,120.195 -15.029,126.561 5.926,6.365 1.492,6.451 -1.764,14.711 -3.242,8.25 -9.871,6.508 11.109,60.348 0,0 18.496,26.586 18.218,41.266 0,0 -23.833,19.586 -54.874,20.203 -31.035,0.617 -69.935,0.711 -94.752,-28.48 0,0 -7.724,-11.109 6.938,-28.805 0,0 24.594,1.729 18.135,-65.711 0,0 -14.184,-9.609 0.27,-21.156 0,0 8.656,-120.635 23.808,-131.174"
         id="path33"
         inkscape:connector-curvature="0"
         style="fill:#e54d36" /></g><path
       d="m 1762.535,1286.969 c 0,0 -63.15,-28.012 -93.75,-21.656 l -5.314,43.572 90.655,19.012 8.409,-40.928 z"
       id="path35"
       inkscape:connector-curvature="0"
       style="fill:#232323" /></g><g
     id="g45"
     clip-path="url(#SVGID_2_)"><path
       style="fill:#e54d36"
       inkscape:connector-curvature="0"
       id="path47"
       d="m 650.883,1610.407 c -204.09,-165.219 -184.654,-476.205 -223.518,-398.445 -38.867,77.744 -136.068,29.15 -194.377,9.711 -58.316,-19.439 -58.316,194.373 -106.909,233.244 -48.581,38.873 -262.393,-106.904 -184.647,-48.596 l 611.736,713.045 C 540.039,1994.684 534.26,1853.378 534.26,1853.378 l 116.623,-242.971 z" /><path
       style="fill:#ffffff"
       inkscape:connector-curvature="0"
       id="path49"
       d="m 602.299,2304.965 c 14.775,-7.293 34.949,-32.158 55.869,-63.213 l -105,-122.387 c 10.957,104.044 27.027,196.507 49.131,185.6 z" /><path
       style="fill:#e54d36"
       inkscape:connector-curvature="0"
       id="path51"
       d="m 1684.84,1582.665 84.188,-90.68 -22.208,-145.938 -113.811,24.23 -48.285,160.117 -164.098,190.674 -176.908,161.463 -19.451,-58.312 68.039,-77.75 -97.195,-106.904 19.449,-320.711 77.746,-155.49 -116.625,0 -97.195,-194.379 -92.314,194.379 -111.768,0 -97.176,-194.379 -77.758,194.379 -126.331,0 213.797,476.201 c -19.443,58.309 -145.773,-29.379 -145.773,184.654 0,252.68 116.623,242.963 116.623,242.963 0,0 -51.764,103.516 -99.617,174.57 l 809.072,943.059 c -19.433,-38.889 9.729,-515.082 9.729,-515.082 -38.881,-77.736 -126.348,-87.463 -136.074,-136.053 -9.725,-48.598 -9.717,-116.621 -9.717,-116.621 0,0 -97.186,68.023 -162.958,0 -49.325,-51.029 233.44,-78.84 278.282,-112.09 14.951,-11.092 -46.673,-174.787 -46.673,-174.787 0,0 -117.323,-28.033 -84.198,-94.115 11.32,-22.584 51.086,-67.127 96.1,-113.74 51.854,-16.496 172.758,-50.658 191.456,-17.211 l -32.294,-138.789 c 1.599,-1.5 2.458,-2.303 2.458,-2.303 L 1684.84,1582.665 Z M 842.141,1296.649 c 0,0 108.004,22.771 112.295,34.609 10.419,28.752 -13.082,85.795 -24.83,101.455 -53.987,72 -134.376,-128.191 -87.465,-136.064 z m 167.171,313.656 c -18.316,-2.912 -57.535,-107.977 -57.535,-107.977 l 115.068,0 c 10e-4,10e-4 -39.216,110.893 -57.533,107.977 z m 40.351,-194.26 c -11.738,-15.66 -51.699,-68.756 -37.238,-90.963 24.737,-37.992 124.705,-45.098 124.705,-45.098 22.671,8.983 -33.466,208.065 -87.467,136.061 z" /></g><use
     height="100%"
     width="100%"
     y="0"
     x="0"
     style="overflow:visible;fill:none;stroke:#e54d36;stroke-width:2;stroke-miterlimit:10"
     id="use53"
     stroke-miterlimit="10"
     overflow="visible"
     xlink:href="#SVGID_1_" /><path
     stroke-miterlimit="10"
     d="M 1152.303,2348.307"
     id="path55"
     inkscape:connector-curvature="0"
     style="fill:#020202;stroke:#000000;stroke-miterlimit:10" /><g
     id="g57"><g
       id="g59"><path
         style="fill:#ffffff;stroke:#e54d36;stroke-miterlimit:10"
         inkscape:connector-curvature="0"
         id="path61"
         d="M 1993.527,599.659 C 1857.97,712.825 1736.378,946.84 1736.378,946.84 l -60.78,309.678 -0.197,5.064 c 28.236,-1.643 71.557,14.17 90.752,21.867 l 1.627,-13.527 c 0,0 11.203,-35.559 7.869,-42.342 -3.342,-6.779 -13.049,-18.17 -13.049,-18.17 0,0 18.924,-1.336 21.71,-3.85 2.796,-2.512 -16.821,-4.252 -14.653,-11.914 2.147,-7.656 29.301,-10.318 29.301,-10.318 -2.854,-53.002 21.436,-119.355 21.436,-119.355 17.059,-65.76 113.808,-196.324 113.808,-196.324 104.392,-128.399 59.325,-267.99 59.325,-267.99 z"
         stroke-miterlimit="10" /><path
         style="fill:#ce4131"
         inkscape:connector-curvature="0"
         id="path63"
         d="m 1761.364,1279.811 c -16.642,-6.674 -61.479,-20.383 -85.964,-18.961 -2.328,0.135 -4.551,0.395 -6.615,0.824 l -5.314,47.211 4.977,1.045 80.24,16.826 5.438,1.141 15.687,-40.928 c 0,0 -3.186,-5.049 -8.449,-7.158 z" /></g><g
       id="g65"><line
         style="fill:none;stroke:#e54d36;stroke-miterlimit:10"
         id="line67"
         y2="1255.213"
         x2="1698.686"
         y1="956.815"
         x1="1760.655"
         stroke-miterlimit="10" /><path
         style="fill:none;stroke:#e54d36;stroke-miterlimit:10"
         inkscape:connector-curvature="0"
         id="path69"
         d="m 1977.015,627.893 c 0,0 22.138,113.506 -55.804,213.764 -77.954,100.266 -132.202,207.982 -145.015,307.4"
         stroke-miterlimit="10" /></g></g></svg>